# xmcd
#
# Track frame offsets:
#	150
#	14154
#	23551
#
# Disc length: 469 seconds
#
# Revision: 0
# Processed by: cddbd v1.5.2PL0 Copyright (c) Steve Scherf et al.
# Submitted via: dBpowerAMP V4.0
#
DISCID=1b01d303
DTITLE=The Bresslaws - Captain Fantastic Single
DYEAR=1900
DGENRE=Mod
TTITLE0=Captain Fantastic
TTITLE1=Moonlit Night
TTITLE2=Backfist Baby
EXTD=The Bresslaws - Capatin Fantastic Single - Biff Bang Pow Records
EXTT0=
EXTT1=
EXTT2=
PLAYORDER=
